# xmcd
#
# Track frame offsets:
#	150
#	13625
#	30477
#	44410
#	59797
#	69382
#	86207
#	103957
#	120570
#	132522
#	148040
#	160317
#	177937
#	200205
#
# Disc length: 2955 seconds
#
# Revision: 1
# Processed by: cddbd v1.5.1PL0 Copyright (c) Steve Scherf et al.
# Submitted via: EasyCDDAExtractor 6.5.7.1
#
DISCID=d60b890e
DTITLE=Os Guapos - 25 Anos
DYEAR=1900
DGENRE=Gaúcha
TTITLE0=Trastes do meu uso
TTITLE1=Dia de Rodeio
TTITLE2=Morena Faeira
TTITLE3=Chimarreando
TTITLE4=Saudade Antiga
TTITLE5=Fandango do Paraná
TTITLE6=Teu Beijo
TTITLE7=Prenda Canção
TTITLE8=Negra Guria
TTITLE9=Noite Campeira
TTITLE10=Peão de Fazenda
TTITLE11=Empurrando o Peito
TTITLE12=Loirinha do Baile
TTITLE13=Pot-Pourri do Chimarrão
EXTD=
EXTT0=
EXTT1=
EXTT2=
EXTT3=
EXTT4=
EXTT5=
EXTT6=
EXTT7=
EXTT8=
EXTT9=
EXTT10=
EXTT11=
EXTT12=
EXTT13=
PLAYORDER=
